# AST/ASF file generated using VICON BodyLanguage
# -----------------------------------------------
:version 1.10
:name VICON
:units
  mass 1.0
  length 0.45
  angle deg
:documentation
   .ast/.asf automatically generated from VICON data using
   VICON BodyBuilder and BodyLanguage model FoxedUp or BRILLIANT.MOD
:root
   order TX TY TZ RX RY RZ
   axis XYZ
   position 0 0 0  
   orientation 0 0 0 
:bonedata
  begin
     id 1 
     name lhipjoint
     direction 0.537252 -0.787203 0.302774 
     length 2.29576 
     axis 0 0 0  XYZ
  end
  begin
     id 2 
     name lfemur
     direction 0.34202 -0.939693 0  
     length 7.31114  
     axis 0 0 20  XYZ
    dof rx ry rz
    limits (-160.0 20.0)
           (-70.0 70.0)
           (-60.0 70.0)
  end
  begin
     id 3 
     name ltibia
     direction 0.34202 -0.939693 0   
     length 8.36008   
     axis 0 0 20   XYZ
    dof rx
    limits (-10.0 170.0)
  end
  begin
     id 4 
     name lfoot
     direction 0.0969116 -0.266263 0.959016   
     length 2.16704   
     axis -90 7.62852e-016 20   XYZ
    dof rx rz
    limits (-45.0 90.0)
           (-70.0 20.0)
  end
  begin
     id 5 
     name ltoes
     direction 1.53563e-011 -4.21779e-011 1   
     length 1.08338   
     axis -90 7.62852e-016 20   XYZ
    dof rx
    limits (-90.0 20.0)
  end
  begin
     id 6 
     name rhipjoint
     direction -0.588228 -0.754791 0.290308   
     length 2.39434  
     axis 0 0 0  XYZ 
  end
  begin
     id 7 
     name rfemur
     direction -0.34202 -0.939693 0   
     length 7.45207   
     axis 0 0 -20   XYZ
    dof rx ry rz
    limits (-160.0 20.0)
           (-70.0 70.0)
           (-70.0 60.0)
  end
  begin
     id 8 
     name rtibia
     direction -0.34202 -0.939693 0   
     length 8.03565   
     axis 0 0 -20   XYZ
    dof rx
    limits (-10.0 170.0)
 end
 begin
     id 9 
     name rfoot
     direction -0.107009 -0.294004 0.949795   
     length 2.11509  
     axis -90 -7.62852e-016 -20   XYZ
    dof rx rz
    limits (-45.0 90.0)
           (-20.0 70.0)
  end
  begin
     id 10 
     name rtoes
     direction -1.53533e-011 -4.22004e-011 1   
     length 1.05493   
     axis -90 -7.62852e-016 -20   XYZ
    dof rx
    limits (-90.0 20.0)
  end
  begin
     id 11 
     name lowerback
     direction -0.0115208 0.997969 -0.0626515   
     length 2.03153   
     axis 0 0 0   XYZ
    dof rx ry rz
    limits (-20.0 45.0)
           (-30.0 30.0)
           (-30.0 30.0)
  end
  begin
     id 12 
     name upperback
     direction -0.00423475 0.999974 -0.00583614   
     length 2.03619   
     axis 0 0 0   XYZ
    dof rx ry rz
    limits (-20.0 45.0)
           (-30.0 30.0)
           (-30.0 30.0)
  end
  begin
     id 13 
     name thorax
     direction 0.00289429 0.999728 0.0231573   
     length 2.03921   
     axis 0 0 0   XYZ
    dof rx ry rz
    limits (-20.0 45.0)
           (-30.0 30.0)
           (-30.0 30.0)
  end
  begin
     id 14 
     name lowerneck
     direction 0.0188995 0.987777 0.154721   
     length 1.78836   
     axis 0 0 0   XYZ
    dof rx ry rz
    limits (-20.0 45.0)
           (-30.0 30.0)
           (-30.0 30.0)
  end
  begin
     id 15 
     name upperneck
     direction -0.00612612 0.992995 -0.118   
     length 1.81789   
     axis 0 0 0   XYZ
    dof rx ry rz
    limits (-20.0 45.0)
           (-30.0 30.0)
           (-30.0 30.0)
  end
  begin
     id 16
     name head
     direction -0.00420226 0.998397 -0.0564482  
     length 1.82234  
     axis 0 0 0   XYZ
    dof rx ry rz
    limits (-20.0 45.0)
           (-30.0 30.0)
           (-30.0 30.0)
  end
  begin
     id 17 
     name lclavicle
     direction 0.916488 0.396539 0.0529676  
     length 3.51732  
     axis 0 0 0   XYZ
    dof ry rz
    limits (-20.0 10.0)
           (0.0 20.0)
  end
  begin
     id 18 
     name lhumerus
     direction 1 -4.4896e-011 8.36962e-028   
     length 5.45077   
     axis 180 -30 -90   XYZ
    dof rx ry rz
    limits (-60.0 90.0)
           (-90.0 90.0)
           (-90.0 90.0)
  end
  begin
     id 19
     name lradius
     direction 1 -4.48962e-011 3.01407e-027   
     length 3.05488   
     axis 180 -30 -90   XYZ
    dof rx
    limits (-10.0 170.0)
  end
  begin
     id 20
     name lwrist
     direction 1 -4.49002e-011 4.72961e-027   
     length 1.52744   
     axis -2.72261e-015 90 90   XYZ
    dof ry
    limits (-180.0 0.0)
 end
  begin
     id 21 
     name lhand
     direction 1 -4.4899e-011 9.45681e-027   
     length 0.638818   
     axis -6.0311e-015 90 90   XYZ
    dof rx rz
    limits (-90.0 90.0)
           (-45.0 45.0)
  end
  begin
     id 22 
     name lfingers
     direction 1 -4.48871e-011 1.88632e-026   
     length 0.515032   
     axis -1.20625e-014 90 90   XYZ
    dof rx
    limits (0.0 90.0)
  end
  begin
     id 23
     name lthumb
     direction 0.707107 -6.34964e-011 0.707107   
     length 0.739485   
     axis -90 45 6.32835e-014   XYZ
    dof rx rz
    limits (-45.0 45.0)
           (-45.0 45.0)
  end
  begin
     id 24 
     name rclavicle
     direction -0.949427 0.303202 0.0815894   
     length 3.76167  
     axis 0 0 0   XYZ 
    dof ry rz
    limits (-10.0 20.0)
           (-20.0 0.0)
  end
  begin
     id 25 
     name rhumerus
     direction -1 -4.48971e-011 -6.43969e-018  
     length 4.88702   
     axis 180 30 90   XYZ
    dof rx ry rz
    limits (-90.0 60.0)
           (-90.0 90.0)
           (-90.0 90.0)
  end
  begin
     id 26 
     name rradius
     direction -1 -4.48987e-011 5.46662e-027   
     length 3.22603   
     axis 180 30 90   XYZ
    dof rx
    limits (-10.0 170.0)
  end
  begin
     id 27 
     name rwrist
     direction -1 -4.48956e-011 4.72476e-027   
     length 1.61302   
     axis -2.72261e-015 -90 -90   XYZ
    dof ry
    limits (-180.0 0.0)
  end
  begin
     id 28
     name rhand
     direction -1 -4.4889e-011 9.43571e-027   
     length 0.716293   
     axis -6.0311e-015 -90 -90   XYZ
    dof rx rz
    limits (-90.0 90.0)
           (-45.0 45.0)
  end
  begin
     id 29
     name rfingers
     direction -1 -4.48887e-011 1.88701e-026   
     length 0.577494   
     axis -1.20625e-014 -90 -90   XYZ
    dof rx
    limits (0.0 90.0)
  end
  begin
     id 30
     name rthumb
     direction -0.707107 -6.34825e-011 0.707107   
     length 0.829169   
     axis -90 -45 -6.32835e-014   XYZ
    dof rx rz
    limits (-45.0 45.0)
           (-45.0 45.0)
  end
:hierarchy
  begin
    root lhipjoint rhipjoint lowerback
    lhipjoint lfemur
    lfemur ltibia
    ltibia lfoot
    lfoot ltoes
    rhipjoint rfemur
    rfemur rtibia
    rtibia rfoot
    rfoot rtoes
    lowerback upperback
    upperback thorax
    thorax lowerneck lclavicle rclavicle
    lowerneck upperneck
    upperneck head
    lclavicle lhumerus
    lhumerus lradius
    lradius lwrist
    lwrist lhand lthumb
    lhand lfingers
    rclavicle rhumerus
    rhumerus rradius
    rradius rwrist
    rwrist rhand rthumb
    rhand rfingers
  end

#!OML:ASF F:\VICON\USERDATA\INSTALL\rory3\rory3.ASF
:FULLY-SPECIFIED
:DEGREES
153
root -0.903166 16.7664 1.59044 212.526 69.9876 177.224
lowerback 23.73 1.05453 -7.57186
upperback 6.48231 -0.0188113 -5.95999
thorax -6.00533 0.390697 -2.22515
lowerneck -19.118 9.67084 8.54391
upperneck 12.7464 14.5603 -18.4889
head 9.29701 5.67326 -5.57269
rclavicle 9.54166e-015 -3.73715e-014
rhumerus 4.60086 26.6633 -64.688
rradius 79.7199
rwrist -3.83263
rhand -17.0321 8.18683
rfingers 7.12502
rthumb 9.20433 -21.5923
lclavicle 9.54166e-015 -3.73715e-014
lhumerus -9.72135 -6.57326 59.3286
lradius 74.7027
lwrist 39.5892
lhand -12.6226 31.8155
lfingers 7.12502
lthumb 13.4569 61.3608
rfemur -74.7779 -22.458 40.2651
rtibia 55.9353
rfoot -20.8682 4.3501
rtoes -4.53313
lfemur -75.4171 9.87344 -21.6732
ltibia 52.6018
lfoot -11.0414 -15.1737
ltoes -13.8522
154
root -0.912444 16.7091 1.57779 212.841 69.7523 177.115
lowerback 24.0592 0.977855 -7.51169
upperback 6.50729 -0.130794 -6.07325
thorax -6.14367 0.34649 -2.3622
lowerneck -19.2717 9.58472 8.50263
upperneck 12.575 14.3843 -18.3958
head 9.22754 5.59698 -5.55785
rclavicle 3.10104e-014 -4.29375e-014
rhumerus 5.59801 26.5593 -64.3441
rradius 79.5108
rwrist -4.38372
rhand -16.7847 8.24322
rfingers 7.12502
rthumb 9.44304 -21.5252
lclavicle 3.10104e-014 -4.29375e-014
lhumerus -8.6638 -6.54402 58.8539
lradius 74.4349
lwrist 40.5117
lhand -12.6904 32.0623
lfingers 7.12502
lthumb 13.3917 61.6119
rfemur -75.8713 -22.6373 40.6837
rtibia 56.7425
rfoot -21.086 4.48766
rtoes -4.77587
lfemur -76.4923 9.90525 -21.9558
ltibia 53.4097
lfoot -10.9374 -15.7394
ltoes -12.8081
155
root -0.917558 16.6543 1.56395 213.334 69.5446 177.273
lowerback 24.458 0.944102 -7.45112
upperback 6.50817 -0.198611 -6.10126
thorax -6.34466 0.321622 -2.42026
lowerneck -19.3844 9.46283 8.33664
upperneck 12.458 14.2013 -18.2696
head 9.15622 5.51473 -5.51408
rclavicle 2.54444e-014 -4.13472e-014
rhumerus 6.69916 26.4764 -63.8397
rradius 79.162
rwrist -5.10591
rhand -16.5871 8.18887
rfingers 7.12502
rthumb 9.63377 -21.5708
lclavicle 2.54444e-014 -4.13472e-014
lhumerus -7.69067 -6.39532 58.4898
lradius 73.9823
lwrist 41.1798
lhand -12.2277 31.6705
lfingers 7.12502
lthumb 13.8376 61.1902
rfemur -76.8295 -22.7907 41.1484
rtibia 57.5338
rfoot -21.3628 4.63448
rtoes -5.1845
lfemur -77.4891 10.0472 -22.1893
ltibia 54.2185
lfoot -10.9255 -16.2624
ltoes -12.1984
156
root -0.921479 16.6015 1.55169 213.314 69.4508 176.898
lowerback 24.835 0.978067 -7.55627
upperback 6.55268 -0.206529 -6.18546
thorax -6.48276 0.329444 -2.46319
lowerneck -19.4289 9.28823 8.13664
upperneck 12.2412 13.941 -18.1413
head 9.02594 5.40497 -5.47766
rclavicle -1.27222e-014 7.07673e-014
rhumerus 7.71963 26.289 -63.328
rradius 78.8455
rwrist -5.94393
rhand -16.7067 7.98096
rfingers 7.12502
rthumb 9.51831 -21.7841
lclavicle -1.27222e-014 7.07673e-014
lhumerus -6.61968 -6.27667 58.1995
lradius 73.5502
lwrist 41.8297
lhand -11.5554 31.5759
lfingers 7.12502
lthumb 14.4854 61.0503
rfemur -77.8212 -22.971 41.3851
rtibia 58.3358
rfoot -21.5511 4.87162
rtoes -5.2224
lfemur -78.421 10.1329 -22.6512
ltibia 54.9915
lfoot -11.0101 -16.6519
ltoes -12.1006
157
root -0.923722 16.545 1.53738 213.786 69.2586 176.95
lowerback 25.0596 0.971385 -7.48119
upperback 6.59896 -0.210231 -6.23836
thorax -6.54524 0.332785 -2.5695
lowerneck -19.5037 9.14744 8.12111
upperneck 12.019 13.7006 -18.1259
head 8.92723 5.30198 -5.50649
rclavicle 4.69132e-014 6.59965e-014
rhumerus 8.54437 26.0055 -63.0456
rradius 78.6
rwrist -6.52791
rhand -16.7572 8.06413
rfingers 7.12502
rthumb 9.46964 -21.7031
lclavicle 4.69132e-014 6.59965e-014
lhumerus -5.5755 -6.19946 57.9158
lradius 73.305
lwrist 42.5792
lhand -11.7191 31.8479
lfingers 7.12502
lthumb 14.3277 61.3335
rfemur -78.9131 -23.0983 41.8546
rtibia 59.132
rfoot -21.7139 5.05533
rtoes -5.31624
lfemur -79.4807 10.2394 -22.9667
ltibia 55.763
lfoot -10.9786 -17.1249
ltoes -11.4403
158
root -0.925108 16.4832 1.52216 214.122 69.1866 176.93
lowerback 25.3658 0.971568 -7.52631
upperback 6.61786 -0.247896 -6.34482
thorax -6.67664 0.324216 -2.66123
lowerneck -19.5739 9.04311 8.15494
upperneck 11.8107 13.486 -18.0558
head 8.83428 5.21575 -5.5201
rclavicle -9.54166e-015 -5.60573e-014
rhumerus 9.44614 25.8841 -62.7688
rradius 78.2783
rwrist -7.14653
rhand -16.6527 7.99918
rfingers 7.12502
rthumb 9.57049 -21.7635
lclavicle -9.54166e-015 -5.60573e-014
lhumerus -4.54576 -6.02586 57.5712
lradius 72.9925
lwrist 43.3581
lhand -11.8082 32.0468
lfingers 7.12502
lthumb 14.2418 61.5385
rfemur -79.8916 -23.1371 42.1462
rtibia 59.9409
rfoot -21.9203 5.19384
rtoes -5.22621
lfemur -80.434 10.3891 -23.344
ltibia 56.53
lfoot -11.0273 -17.5666
ltoes -11.1549
159
root -0.926164 16.4266 1.50507 214.299 69.1508 176.757
lowerback 25.7308 0.956378 -7.52713
upperback 6.60441 -0.30907 -6.51115
thorax -6.87473 0.306101 -2.8413
lowerneck -19.6917 8.93661 8.10644
upperneck 11.714 13.2879 -17.8877
head 8.77494 5.13295 -5.48366
rclavicle -4.77083e-015 4.6118e-014
rhumerus 10.3209 25.7245 -62.5717
rradius 77.8835
rwrist -7.90878
rhand -16.5925 7.91013
rfingers 7.12502
rthumb 9.62857 -21.8498
lclavicle -4.77083e-015 4.6118e-014
lhumerus -3.52942 -5.8956 57.2127
lradius 72.605
lwrist 44.3105
lhand -11.6377 31.979
lfingers 7.12502
lthumb 14.4061 61.4591
rfemur -80.8462 -23.2013 42.3659
rtibia 60.7272
rfoot -22.0941 5.33699
rtoes -5.56919
lfemur -81.3646 10.5586 -23.8317
ltibia 57.2971
lfoot -11.0516 -18.1022
ltoes -10.9241
160
root -0.927379 16.3784 1.48805 214.29 69.1113 176.477
lowerback 25.9939 0.986788 -7.74753
upperback 6.72883 -0.32138 -6.53511
thorax -6.86084 0.311363 -2.74492
lowerneck -19.8403 8.85146 8.0478
upperneck 11.5423 13.1624 -17.9435
head 8.72756 5.06955 -5.50879
rclavicle -2.3059e-014 2.42517e-014
rhumerus 11.4705 25.504 -62.1822
rradius 77.3476
rwrist -8.68857
rhand -16.4966 7.99814
rfingers 7.12502
rthumb 9.72109 -21.7575
lclavicle -2.3059e-014 2.42517e-014
lhumerus -2.40774 -5.5835 57.0557
lradius 72.234
lwrist 45.4447
lhand -11.7311 32.1127
lfingers 7.12502
lthumb 14.3161 61.5991
rfemur -81.6434 -23.3194 42.5088
rtibia 61.488
rfoot -22.292 5.526
rtoes -5.6661
lfemur -82.2166 10.6802 -24.2966
ltibia 58.0869
lfoot -11.1156 -18.6051
ltoes -10.5921
161
root -0.925782 16.3274 1.47293 214.563 68.9715 176.502
lowerback 25.8876 1.1505 -8.30544
upperback 7.0707 -0.150975 -6.14497
thorax -6.41125 0.390445 -2.03199
lowerneck -20.0922 8.69945 7.60429
upperneck 11.2545 13.0691 -18.1377
head 8.65296 4.99889 -5.50805
rclavicle 6.36111e-015 -4.01545e-014
rhumerus 12.9823 25.3217 -61.0342
rradius 76.8909
rwrist -9.39919
rhand -16.3375 7.91201
rfingers 7.12502
rthumb 9.87459 -21.8364
lclavicle 6.36111e-015 -4.01545e-014
lhumerus -1.17245 -5.00084 57.4207
lradius 71.9771
lwrist 46.8359
lhand -12.106 32.5641
lfingers 7.12502
lthumb 13.9548 62.0757
rfemur -82.4169 -23.4201 42.788
rtibia 62.2588
rfoot -22.5737 5.63776
rtoes -5.83669
lfemur -83.0647 10.8209 -24.6089
ltibia 58.88
lfoot -11.1571 -19.1743
ltoes -10.0046
